<?xml version="1.0" encoding="UTF-8" standalone="no"?>
<!-- Created with Inkscape (http://www.inkscape.org/) -->

<svg
   version="1.1"
   id="svg4284"
   xml:space="preserve"
   width="682.66669"
   height="682.66669"
   viewBox="0 0 682.66669 682.66669"
   xmlns="http://www.w3.org/2000/svg"
   xmlns:svg="http://www.w3.org/2000/svg"><defs
     id="defs4288"><clipPath
       clipPathUnits="userSpaceOnUse"
       id="clipPath4298"><path
         d="M 0,512 H 512 V 0 H 0 Z"
         id="path4296" /></clipPath></defs><g
     id="g4290"
     transform="matrix(1.3333333,0,0,-1.3333333,0,682.66667)"><g
       id="g4292"><g
         id="g4294"
         clip-path="url(#clipPath4298)"><g
           id="g4300"
           transform="translate(328.145,39.5645)"><path
             d="m 0,0 h -144.29 c -4.427,0 -8.016,3.589 -8.016,8.016 v 208.42 c 0,4.427 3.589,8.016 8.016,8.016 H 0 c 4.427,0 8.016,-3.589 8.016,-8.016 V 8.016 C 8.016,3.589 4.427,0 0,0 Z"
             style="fill:none;stroke:#000000;stroke-width:15;stroke-linecap:round;stroke-linejoin:round;stroke-miterlimit:10;stroke-dasharray:none;stroke-opacity:1"
             id="path4302" /></g><g
           id="g4304"
           transform="translate(79.645,39.5645)"><path
             d="M 0,0 V 240.484"
             style="fill:none;stroke:#000000;stroke-width:15;stroke-linecap:round;stroke-linejoin:round;stroke-miterlimit:10;stroke-dasharray:none;stroke-opacity:1"
             id="path4306" /></g><g
           id="g4308"
           transform="translate(151.7905,39.5645)"><path
             d="M 0,0 -72.146,112.226 -144.291,0"
             style="fill:none;stroke:#000000;stroke-width:15;stroke-linecap:round;stroke-linejoin:round;stroke-miterlimit:10;stroke-dasharray:none;stroke-opacity:1"
             id="path4310" /></g><g
           id="g4312"
           transform="translate(31.5483,71.6289)"><path
             d="M 0,0 H 96.193"
             style="fill:none;stroke:#000000;stroke-width:15;stroke-linecap:round;stroke-linejoin:round;stroke-miterlimit:10;stroke-dasharray:none;stroke-opacity:1"
             id="path4314" /></g><g
           id="g4316"
           transform="translate(135.7583,280.0483)"><path
             d="m 0,0 h -112.226 c -4.427,0 -8.016,3.589 -8.016,8.016 v 176.355 c 0,4.427 3.589,8.016 8.016,8.016 H 0 c 4.427,0 8.016,-3.589 8.016,-8.016 V 8.016 C 8.016,3.589 4.427,0 0,0 Z"
             style="fill:none;stroke:#000000;stroke-width:15;stroke-linecap:round;stroke-linejoin:round;stroke-miterlimit:10;stroke-dasharray:none;stroke-opacity:1"
             id="path4318" /></g><g
           id="g4320"
           transform="translate(110.6997,352.1919)"><path
             d="m 0,0 c 0.659,-2.562 1.01,-5.247 1.01,-8.015 0,-17.708 -14.356,-32.064 -32.065,-32.064 -17.708,0 -32.064,14.356 -32.064,32.064 0,17.709 14.356,32.065 32.064,32.065 2.785,0 5.486,-0.355 8.062,-1.022"
             style="fill:none;stroke:#000000;stroke-width:15;stroke-linecap:round;stroke-linejoin:round;stroke-miterlimit:10;stroke-dasharray:none;stroke-opacity:1"
             id="path4322" /></g><g
           id="g4324"
           transform="translate(95.6772,424.3389)"><path
             d="m 0,0 c 0,-8.854 -7.178,-16.032 -16.032,-16.032 -8.854,0 -16.032,7.178 -16.032,16.032 0,8.854 7.178,16.032 16.032,16.032 C -7.178,16.032 0,8.854 0,0 Z"
             style="fill:none;stroke:#000000;stroke-width:15;stroke-linecap:round;stroke-linejoin:round;stroke-miterlimit:10;stroke-dasharray:none;stroke-opacity:1"
             id="path4326" /></g><g
           id="g4328"
           transform="translate(297.6616,191.8726)"><path
             d="m 0,0 c 1.466,-2.535 2.708,-5.216 3.698,-8.016 1.773,-5.015 2.737,-10.412 2.737,-16.034 0,-26.563 -21.534,-48.097 -48.097,-48.097 -26.563,0 -48.096,21.534 -48.096,48.097 0,26.563 21.533,48.097 48.096,48.097 5.622,0 11.019,-0.965 16.034,-2.737"
             style="fill:none;stroke:#000000;stroke-width:15;stroke-linecap:round;stroke-linejoin:round;stroke-miterlimit:10;stroke-dasharray:none;stroke-opacity:1"
             id="path4330" /></g><g
           id="g4332"
           transform="translate(272.0322,167.8228)"><path
             d="m 0,0 c 0,-8.854 -7.178,-16.032 -16.032,-16.032 -8.855,0 -16.032,7.178 -16.032,16.032 0,8.854 7.177,16.032 16.032,16.032 C -7.178,16.032 0,8.854 0,0 Z"
             style="fill:none;stroke:#000000;stroke-width:15;stroke-linecap:round;stroke-linejoin:round;stroke-miterlimit:10;stroke-dasharray:none;stroke-opacity:1"
             id="path4334" /></g><g
           id="g4336"
           transform="translate(432.355,39.5645)"><path
             d="M 0,0 V 240.484"
             style="fill:none;stroke:#000000;stroke-width:15;stroke-linecap:round;stroke-linejoin:round;stroke-miterlimit:10;stroke-dasharray:none;stroke-opacity:1"
             id="path4338" /></g><g
           id="g4340"
           transform="translate(504.5,39.5645)"><path
             d="M 0,0 -72.145,112.226 -144.291,0"
             style="fill:none;stroke:#000000;stroke-width:15;stroke-linecap:round;stroke-linejoin:round;stroke-miterlimit:10;stroke-dasharray:none;stroke-opacity:1"
             id="path4342" /></g><g
           id="g4344"
           transform="translate(384.2583,71.6289)"><path
             d="M 0,0 H 96.193"
             style="fill:none;stroke:#000000;stroke-width:15;stroke-linecap:round;stroke-linejoin:round;stroke-miterlimit:10;stroke-dasharray:none;stroke-opacity:1"
             id="path4346" /></g><g
           id="g4348"
           transform="translate(488.4678,280.0483)"><path
             d="m 0,0 h -112.226 c -4.427,0 -8.016,3.589 -8.016,8.016 v 176.355 c 0,4.427 3.589,8.016 8.016,8.016 H 0 c 4.427,0 8.016,-3.589 8.016,-8.016 V 8.016 C 8.016,3.589 4.427,0 0,0 Z"
             style="fill:none;stroke:#000000;stroke-width:15;stroke-linecap:round;stroke-linejoin:round;stroke-miterlimit:10;stroke-dasharray:none;stroke-opacity:1"
             id="path4350" /></g><g
           id="g4352"
           transform="translate(463.4097,352.1919)"><path
             d="m 0,0 c 0.659,-2.562 1.01,-5.247 1.01,-8.015 0,-17.708 -14.356,-32.064 -32.065,-32.064 -17.709,0 -32.064,14.356 -32.064,32.064 0,17.709 14.355,32.065 32.064,32.065 2.784,0 5.486,-0.355 8.062,-1.022"
             style="fill:none;stroke:#000000;stroke-width:15;stroke-linecap:round;stroke-linejoin:round;stroke-miterlimit:10;stroke-dasharray:none;stroke-opacity:1"
             id="path4354" /></g><g
           id="g4356"
           transform="translate(448.3872,424.3389)"><path
             d="m 0,0 c 0,-8.854 -7.178,-16.032 -16.032,-16.032 -8.855,0 -16.032,7.178 -16.032,16.032 0,8.854 7.177,16.032 16.032,16.032 C -7.178,16.032 0,8.854 0,0 Z"
             style="fill:none;stroke:#000000;stroke-width:15;stroke-linecap:round;stroke-linejoin:round;stroke-miterlimit:10;stroke-dasharray:none;stroke-opacity:1"
             id="path4358" /></g><g
           id="g4360"
           transform="translate(239.9678,79.645)"><path
             d="M 0,0 H 32.064"
             style="fill:none;stroke:#000000;stroke-width:15;stroke-linecap:round;stroke-linejoin:round;stroke-miterlimit:10;stroke-dasharray:none;stroke-opacity:1"
             id="path4362" /></g></g></g></g></svg>
