<svg id="Layer_1" enable-background="new 0 0 128 128" viewBox="0 0 128 128" xmlns="http://www.w3.org/2000/svg"><g clip-rule="evenodd" fill-rule="evenodd"><path d="m124 0h-120c-2.21 0-4 1.79-4 4v84c0 2.21 1.79 4 4 4h120c2.21 0 4-1.79 4-4v-84c0-2.21-1.79-4-4-4zm-2 84c0 1.1-.9 2-2 2h-112c-1.1 0-2-.9-2-2v-76c0-1.1.9-2 2-2h112c1.1 0 2 .9 2 2z"/><path d="m20 86v42h16v-42zm10 38h-4v-32h4z"/><path d="m96 86v42h16v-42zm10 40h-4v-34h4z"/><path d="m17 122h22c1.66 0 3 1.34 3 3s-1.34 3-3 3h-22c-1.66 0-3-1.34-3-3s1.34-3 3-3z"/><path d="m93 122h22c1.66 0 3 1.34 3 3s-1.34 3-3 3h-22c-1.66 0-3-1.34-3-3s1.34-3 3-3z"/><path d="m18 26c1.1 0 2 .9 2 2s-.9 2-2 2-2-.9-2-2 .9-2 2-2z"/><path d="m18 38c1.1 0 2 .9 2 2s-.9 2-2 2-2-.9-2-2 .9-2 2-2z"/><path d="m18 50c1.1 0 2 .9 2 2s-.9 2-2 2-2-.9-2-2 .9-2 2-2z"/><path d="m18 62c1.1 0 2 .9 2 2s-.9 2-2 2-2-.9-2-2 .9-2 2-2z"/><path d="m18 74c1.1 0 2 .9 2 2s-.9 2-2 2-2-.9-2-2 .9-2 2-2z"/><path d="m32 26c1.1 0 2 .9 2 2s-.9 2-2 2-2-.9-2-2 .9-2 2-2z"/><path d="m32 38c1.1 0 2 .9 2 2s-.9 2-2 2-2-.9-2-2 .9-2 2-2z"/><path d="m32 50c1.1 0 2 .9 2 2s-.9 2-2 2-2-.9-2-2 .9-2 2-2z"/><path d="m32 62c1.1 0 2 .9 2 2s-.9 2-2 2-2-.9-2-2 .9-2 2-2z"/><path d="m32 74c1.1 0 2 .9 2 2s-.9 2-2 2-2-.9-2-2 .9-2 2-2z"/><path d="m46 26c1.1 0 2 .9 2 2s-.9 2-2 2-2-.9-2-2 .9-2 2-2z"/><path d="m46 38c1.1 0 2 .9 2 2s-.9 2-2 2-2-.9-2-2 .9-2 2-2z"/><path d="m46 50c1.1 0 2 .9 2 2s-.9 2-2 2-2-.9-2-2 .9-2 2-2z"/><path d="m46 62c1.1 0 2 .9 2 2s-.9 2-2 2-2-.9-2-2 .9-2 2-2z"/><path d="m60 26c1.1 0 2 .9 2 2s-.9 2-2 2-2-.9-2-2 .9-2 2-2z"/><path d="m60 38c1.1 0 2 .9 2 2s-.9 2-2 2-2-.9-2-2 .9-2 2-2z"/><path d="m60 50c1.1 0 2 .9 2 2s-.9 2-2 2-2-.9-2-2 .9-2 2-2z"/><path d="m74 26c1.1 0 2 .9 2 2s-.9 2-2 2-2-.9-2-2 .9-2 2-2z"/><path d="m74 38c1.1 0 2 .9 2 2s-.9 2-2 2-2-.9-2-2 .9-2 2-2z"/><path d="m88 26c1.1 0 2 .9 2 2s-.9 2-2 2-2-.9-2-2 .9-2 2-2z"/><path d="m18 14c1.1 0 2 .9 2 2s-.9 2-2 2-2-.9-2-2 .9-2 2-2z"/><path d="m32 14c1.1 0 2 .9 2 2s-.9 2-2 2-2-.9-2-2 .9-2 2-2z"/><path d="m46 14c1.1 0 2 .9 2 2s-.9 2-2 2-2-.9-2-2 .9-2 2-2z"/><path d="m60 14c1.1 0 2 .9 2 2s-.9 2-2 2-2-.9-2-2 .9-2 2-2z"/><path d="m74 14c1.1 0 2 .9 2 2s-.9 2-2 2-2-.9-2-2 .9-2 2-2z"/><path d="m88 14c1.1 0 2 .9 2 2s-.9 2-2 2-2-.9-2-2 .9-2 2-2z"/><path d="m102 14c1.1 0 2 .9 2 2s-.9 2-2 2-2-.9-2-2 .9-2 2-2z"/></g></svg>