<?xml version="1.0" encoding="UTF-8" standalone="no"?>
<!-- Created with Inkscape (http://www.inkscape.org/) -->

<svg
   version="1.1"
   id="svg3330"
   xml:space="preserve"
   width="682.66669"
   height="682.66669"
   viewBox="0 0 682.66669 682.66669"
   xmlns="http://www.w3.org/2000/svg"
   xmlns:svg="http://www.w3.org/2000/svg"><defs
     id="defs3334"><clipPath
       clipPathUnits="userSpaceOnUse"
       id="clipPath3344"><path
         d="M 0,512 H 512 V 0 H 0 Z"
         id="path3342" /></clipPath></defs><g
     id="g3336"
     transform="matrix(1.3333333,0,0,-1.3333333,0,682.66667)"><g
       id="g3338"><g
         id="g3340"
         clip-path="url(#clipPath3344)"><g
           id="g3346"
           transform="translate(109.3447,55.29)"><path
             d="m 0,0 c -6.255,2.309 -22.042,9.912 -33.094,20.964 -35.002,35.002 -35.002,92.277 0,127.279 l 91.924,91.924 16.799,40.09 c 3.906,9.324 16.127,11.838 22.799,5.166 L 231.365,152.485 c 6.672,-6.672 4.157,-18.892 -5.166,-22.799 L 186.109,112.888 94.186,20.964 C 84.498,11.276 73.104,4.271 60.948,-0.055"
             style="fill:none;stroke:#000000;stroke-width:20;stroke-linecap:round;stroke-linejoin:round;stroke-miterlimit:2.613;stroke-dasharray:none;stroke-opacity:1"
             id="path3348" /></g><g
           id="g3350"
           transform="translate(263.6318,200)"><path
             d="M 0,0 31.822,-31.822 M -95.457,95.457 -63.64,63.64"
             style="fill:none;stroke:#000000;stroke-width:20;stroke-linecap:round;stroke-linejoin:round;stroke-miterlimit:2.613;stroke-dasharray:none;stroke-opacity:1"
             id="path3352" /></g><g
           id="g3354"
           transform="translate(129.2812,249.4951)"><path
             d="M 0,0 120.211,-120.211"
             style="fill:none;stroke:#000000;stroke-width:20;stroke-linecap:round;stroke-linejoin:round;stroke-miterlimit:2.613;stroke-dasharray:none;stroke-opacity:1"
             id="path3356" /></g><g
           id="g3358"
           transform="translate(109.8906,20.002)"><path
             d="m 0,0 v 109.893 c 0,16.5 13.5,30 30,30 16.5,0 30,-13.5 30,-30 V 0"
             style="fill:none;stroke:#000000;stroke-width:20;stroke-linecap:round;stroke-linejoin:round;stroke-miterlimit:2.613;stroke-dasharray:none;stroke-opacity:1"
             id="path3360" /></g><g
           id="g3362"
           transform="translate(337.1455,213.9639)"><path
             d="m 0,0 164.854,95.179 m -286.905,26.873 c 33.9,8.306 69.75,-1.661 94.503,-26.415 C -2.795,70.884 7.174,35.032 -1.133,1.134 m -26.873,286.905 -95.179,-164.854"
             style="fill:none;stroke:#000000;stroke-width:20;stroke-linecap:round;stroke-linejoin:round;stroke-miterlimit:2.613;stroke-dasharray:none;stroke-opacity:1"
             id="path3364" /></g><g
           id="g3366"
           transform="translate(9.998,10.002)"><path
             d="M 0,0 H 259.783"
             style="fill:none;stroke:#000000;stroke-width:20;stroke-linecap:round;stroke-linejoin:round;stroke-miterlimit:2.613;stroke-dasharray:none;stroke-opacity:1"
             id="path3368" /></g><g
           id="g3370"
           transform="translate(376.7979,376.8008)"><path
             d="M 0,0 48.772,48.772"
             style="fill:none;stroke:#000000;stroke-width:20;stroke-linecap:round;stroke-linejoin:round;stroke-miterlimit:2.613;stroke-dasharray:none;stroke-opacity:1"
             id="path3372" /></g><g
           id="g3374"
           transform="translate(231.8096,231.8232)"><path
             d="M 0,0 0.005,-0.006"
             style="fill:none;stroke:#000000;stroke-width:20;stroke-linecap:round;stroke-linejoin:round;stroke-miterlimit:2.613;stroke-dasharray:none;stroke-opacity:1"
             id="path3376" /></g></g></g></g></svg>
