<?xml version="1.0" encoding="UTF-8"?>
<svg xmlns="http://www.w3.org/2000/svg" id="Artboard_30" data-name="Artboard 30" viewBox="0 0 64 64" width="512" height="512"><path d="M61,7a2,2,0,0,0,2-2V3a2,2,0,0,0-2-2H3A2,2,0,0,0,1,3V5A2,2,0,0,0,3,7H5.586l6,6H3a2,2,0,0,0-2,2v2a2,2,0,0,0,2,2H19v1a3,3,0,0,0,3,3V35.586l-1.5,1.5L19.414,36h0a3.5,3.5,0,0,0-4.828,0L12,38.585a3.415,3.415,0,0,0,0,4.829L30.586,62a3.414,3.414,0,0,0,4.828,0L38,59.415a3.415,3.415,0,0,0,0-4.829L36.914,53.5,48,42.415a3.4,3.4,0,0,0,.374-4.375L49,37.415a3.415,3.415,0,0,0,0-4.829l-7-7V23a3,3,0,0,0,3-3V19H61a2,2,0,0,0,2-2V15a2,2,0,0,0-2-2H52.414l6-6ZM3,3H61V5H3ZM27.414,7h2.172l-6,6H21.414ZM19,12.586,13.414,7H24.586ZM32,7.414,37.586,13H26.414ZM40.414,13l-6-6h2.172l6,6Zm-1-6H50.586L45,12.586Zm-31,0h2.172l6,6H14.414ZM24,23h2v8.587l-2,2Zm12,2.666A3.5,3.5,0,0,0,31.586,26L28,29.587V23h8ZM36.586,58,34,60.585a1.447,1.447,0,0,1-2,0L13.414,42a1.415,1.415,0,0,1,0-2L16,37.415a1.414,1.414,0,0,1,2,0L36.586,56a1.415,1.415,0,0,1,0,2Zm10-17L35.5,52.086,21.914,38.5,33,27.415a1.447,1.447,0,0,1,2,0l1,1V39a3,3,0,0,0,6,0V34.415L46.586,39a1.415,1.415,0,0,1,0,2ZM38,39a1,1,0,1,1,1,1A1,1,0,0,1,38,39Zm9.586-5a1.415,1.415,0,0,1,0,2L47,36.586l-5-5V28.414ZM40,36.184a2.809,2.809,0,0,0-2,0V23h2ZM43,20a1,1,0,0,1-1,1H22a1,1,0,0,1-1-1V19H43Zm18-3H3V15H61ZM49.586,13H47.414l6-6h2.172Z"/><rect x="9.343" y="57" width="11.314" height="2" transform="translate(-36.619 27.594) rotate(-45)"/><rect x="21" y="58" width="2" height="4"/><rect x="11" y="50" width="4" height="2"/></svg>
