<?xml version="1.0" encoding="UTF-8"?>
<svg xmlns="http://www.w3.org/2000/svg" width="512" height="512" viewBox="0 0 512 512"><g><path d="M440,136h56a8,8,0,0,0,8-8V104a8,8,0,0,0-5.94-7.73l-240-64a7.994,7.994,0,0,0-4.12,0l-240,64A8,8,0,0,0,8,104v24a8,8,0,0,0,8,8H72V240H32a8,8,0,0,0-8,8V416a8,8,0,0,0-8,8v16a8,8,0,0,0-8,8v24a8,8,0,0,0,8,8H496a8,8,0,0,0,8-8V448a8,8,0,0,0-8-8V424a8,8,0,0,0-8-8V248a8,8,0,0,0-8-8H440ZM40,256h80V416H40Zm76.69-64L88,220.69V163.31ZM88,140.69V136h32v36.69Zm32,70.62V240H91.31ZM488,456v8H24v-8Zm-8-16H32v-8H480ZM136,416V136H376V416ZM472,256V416H392V256Zm-51.31-64L392,220.69V163.31ZM392,140.69V136h32v36.69Zm32,70.62V240H395.31ZM24,120v-9.85L256,48.28l232,61.87V120Z"/><path d="M80,264a32,32,0,1,0,32,32A32.036,32.036,0,0,0,80,264Zm0,48a16,16,0,1,1,16-16A16.019,16.019,0,0,1,80,312Z"/><path d="M80,344a32,32,0,1,0,32,32A32.036,32.036,0,0,0,80,344Zm0,48a16,16,0,1,1,16-16A16.019,16.019,0,0,1,80,392Z"/><path d="M400,296a32,32,0,1,0,32-32A32.036,32.036,0,0,0,400,296Zm48,0a16,16,0,1,1-16-16A16.019,16.019,0,0,1,448,296Z"/><path d="M432,344a32,32,0,1,0,32,32A32.036,32.036,0,0,0,432,344Zm0,48a16,16,0,1,1,16-16A16.019,16.019,0,0,1,432,392Z"/></g></svg>
